<svg width="21" height="18" viewBox="0 0 21 18" fill="none" xmlns="http://www.w3.org/2000/svg">
<path d="M20.5413 0.99768C20.297 0.698914 19.9311 0.534424 19.5109 0.534424C19.2825 0.534424 19.0404 0.582489 18.7917 0.677551L1.86209 7.1401C0.963654 7.48297 0.842652 7.99749 0.850434 8.27368C0.858216 8.54986 1.00821 9.05676 1.92465 9.34835C1.93015 9.35003 1.93564 9.35171 1.94113 9.35324L5.45279 10.3582L7.3519 15.7888C7.61084 16.5291 8.19205 16.989 8.86893 16.989C9.29572 16.989 9.71549 16.8102 10.0829 16.4721L12.255 14.4721L15.4055 17.0089C15.4058 17.0092 15.4063 17.0093 15.4066 17.0096L15.4365 17.0337C15.4392 17.0359 15.4421 17.0382 15.4449 17.0403C15.7951 17.3119 16.1773 17.4553 16.5507 17.4555H16.5508C17.2803 17.4555 17.8612 16.9155 18.0305 16.0799L20.8044 2.38303C20.9158 1.83325 20.8224 1.34131 20.5413 0.99768ZM6.62757 10.1673L13.4026 6.70614L9.18403 11.1887C9.1149 11.2621 9.06592 11.352 9.04181 11.4498L8.22837 14.7448L6.62757 10.1673ZM9.28901 15.6099C9.26093 15.6357 9.2327 15.6588 9.20447 15.68L9.95917 12.6233L11.332 13.7288L9.28901 15.6099ZM19.6558 2.15033L16.8819 15.8474C16.8552 15.9784 16.7699 16.2835 16.5507 16.2835C16.4423 16.2835 16.3062 16.2244 16.1669 16.1171L12.597 13.2427C12.5965 13.2422 12.5959 13.2418 12.5953 13.2415L10.4711 11.531L16.5717 5.04858C16.767 4.84106 16.7847 4.52322 16.6137 4.29526C16.4425 4.06729 16.1323 3.99557 15.8785 4.12527L5.84464 9.25131L2.28522 8.23294L19.2097 1.77237C19.3526 1.71774 19.4524 1.7063 19.5109 1.7063C19.5467 1.7063 19.6105 1.71057 19.6342 1.73971C19.6653 1.77771 19.705 1.90726 19.6558 2.15033Z" fill="white"/>
</svg>
