<svg width="21" height="21" viewBox="0 0 21 21" fill="none" xmlns="http://www.w3.org/2000/svg">
<path d="M15.4394 11.9335L15.4319 11.996C13.5994 11.0827 13.4077 10.961 13.1711 11.316C13.0069 11.5618 12.5286 12.1193 12.3844 12.2843C12.2386 12.4468 12.0936 12.4593 11.8461 12.3468C11.596 12.2218 10.7935 11.9593 9.84355 11.1093C9.10355 10.4468 8.60688 9.63432 8.46021 9.38432C8.21605 8.96265 8.72688 8.90265 9.19188 8.02265C9.27522 7.84765 9.23271 7.71015 9.17105 7.58599C9.10855 7.46099 8.61105 6.23599 8.40271 5.74765C8.20271 5.26098 7.99688 5.32265 7.84271 5.32265C7.36271 5.28099 7.01188 5.28765 6.70271 5.60932C5.35771 7.08765 5.69688 8.61265 6.84771 10.2343C9.10938 13.1943 10.3144 13.7393 12.5177 14.496C13.1127 14.6852 13.6552 14.6585 14.0844 14.5968C14.5627 14.521 15.5569 13.996 15.7644 13.4085C15.9769 12.821 15.9769 12.3335 15.9144 12.221C15.8527 12.1085 15.6894 12.046 15.4394 11.9335Z" fill="white"/>
<path d="M17.9501 2.88453C11.5426 -3.30963 0.938431 1.18287 0.934264 9.9212C0.934264 11.6679 1.39176 13.3712 2.26343 14.8754L0.850098 20.0104L6.12926 18.6337C12.7168 22.192 20.8468 17.467 20.8501 9.9262C20.8501 7.27953 19.8168 4.7887 17.9376 2.91703L17.9501 2.88453ZM19.1851 9.89869C19.1801 16.2595 12.1976 20.232 6.6751 16.9854L6.3751 16.807L3.2501 17.6195L4.0876 14.582L3.88843 14.2695C0.451764 8.7987 4.4001 1.6487 10.9101 1.6487C13.1218 1.6487 15.1976 2.5112 16.7609 4.0737C18.3234 5.62287 19.1851 7.6987 19.1851 9.89869Z" fill="white"/>
</svg>
